<svg xmlns="http://www.w3.org/2000/svg" fill="none" viewBox="0 0 256 256">
    <style>
      path{fill:#0d0d0d;}
      @media (prefers-color-scheme:dark){path{fill:#fff}}
    </style>
    <path d="M28.6 103.5q1 0 2.6.4a17 17 0 0 0 4.7.6l4.6-.7h1.8l1.6-.1q1.4-.4 2.4-1.6 1.4-1.2 2.1-2.2l4-4.1q1.7-2 4.5-3.8l1.3-1.6q.7-1 1.4-1.8 1-.9 1.7-1.3 1-.4 2.1.2-.4 1.2-.4 2.4 0 1-1 2-.7 1.2-1.8 2-1 1-1.7 2.5l-.5 1.4-.5 1.2-.6 1.3-.5 1.4A75 75 0 0 1 51 112q-1.2.6-2.8.4a37 37 0 0 0-7.3 0l-6.2.7-.4.2h-.5l-1 .2-2-.4-14.3-.9q-2 0-3.6.5a9 9 0 0 1-3.6.7q-1 0-2-.3-1.2-.4-2.2 0l-1.4-.8a2 2 0 0 1-1-1q.4-1.6 1.5-2.8l2.3-2.3 5-4.4v-1.6q.7-.6 1-1.2l1-1.2q.4-.5 1-.8t1-.8q.4-.4.5-.9a6 6 0 0 1 1.9-2l1.7-1.4 2-2.6 2-2.5 1.1-1 1.3-1q1.6-1.2 3-2.9 1.2-1.5 2.6-2.4l1.2-.5 1.3-.6q.6-.4.7-1 .4-.6 0-1.7 1-.7 1.5-1.6l1.2-1.8 1.1-1.1q.8-.4 1.3-1a22 22 0 0 0 4-5.7l-2-.8q-3.3.2-5.5.1l-3.9.1q-1.7 0-3.2.7T26 67.1l-1.3 1.2-1.4 1.5a140 140 0 0 0-7.7 7.8q-1 1-2.5.2-.3-1.4.5-2.3.8-1 1.4-2.2l.8-1.7q0-.7.6-1.8.4-.8 1-1.1.4-.5.7-1.6v-2l.6-1.8.9-2.1q.4-2 1.2-4 .9-1.7 3-2a7 7 0 0 1 3.7.3q1.8.6 3.1.8h3.6q.6 0 .5.2 0 .1.6.2h2q1-.4 2-.5 1.7.3 3.5.2h3.1q.6 0 1 .3l1.2.4q.6 0 1-.2l1.2-.2 5.8-.4a70 70 0 0 0 11.2-1.6h1.8q.8 0 1.5.3.8.4.8 1 .1 1.2-1.1 2.7L68 61.4l-4.8 4-1.5 1.6-1.2 1.3q-.7.6-1.5 1l-1.4.7a9 9 0 0 0-2 2q-.8 1.1-2 2.2l-3.8 4a29 29 0 0 0-4.8 7.3q-.7 1.5-1.5 2.5l-1.3.6q-.6 0-1.1.4-1.8 1-3.5 3l-6 7.8a24 24 0 0 0-3 3.7M126.5 66a24 24 0 0 1 2.4 8.8l.4 3.8q.4 1.6.1 4a23 23 0 0 1-1.5 7A91 91 0 0 1 124 99q-.7 1.5-1.5 2.2l-2 2.6q0 .4-.4.7-1.5 1.6-3.8 3.3t-4.4 2.4l-1.5.3q-.7 0-1.6.2-1 .4-1.8 1.3-.7.7-2 1-.5.3-1.5.4l-1.7.4q-2 .5-5.3 1-3 .6-5.6 0l-.9-.5-1-.5-1-.3-1-.3a11 11 0 0 1-2.6-1.5 11 11 0 0 0-2.6-1.5l-3-1.5q-1.4-.7-2-2.5-1.8-.6-2.5-2.4-.7-2-1.8-3.4-.3-.6-1-.8l-.7-1q-.8-1.2-1.1-3.7l-.6-4.4q0-2 .2-3.6l2-6.8 1-3q.4-1.8 1.6-2.9l2.8-3.2.7-1q.7-1.2 1.9-1.9l2-1.7 2.2-1.5 1.9-1.7q.8-1.2 1.2-2.4.7-1 1.6-2 1.2-.9 2.5-1.3l6.9-2.1q1.8-1 3.8-1a37 37 0 0 1 8.4-.2q2.3.2 4.2.7 2 .6 3.4 1.5.8.4 1.5 1.3l1.6 1.6q1.6 1.6 2.8 3.4a22 22 0 0 0 3.1 3.3m-23-4.7-1.3.3-3.9 2.1q-1.2 1.2-2.3 3-1 1.5-2.2 3l-1.2.9-.8.6q-1.7 2-2.6 4.6l-1.6 5q-1 2.7-1.8 5.8-1 3-.5 6a15 15 0 0 0 1.1 3.5l.8 1.9 2.4 4.3q1 1.4 2.3 2.4 1.4 1 3 1.5a7 7 0 0 0 3.5-.1 28 28 0 0 0 6-3 9 9 0 0 0 2.8-2.6q.9-1.4 1.7-3.5l.5-1a10 10 0 0 0 1.8-3.5l1-2.6q1.3-3 1.6-5.5.4-2.7.6-6.4 0-2-.3-3a14 14 0 0 1-.7-4.7q0-1-.4-1.8t-2-1.2q-1.5-.3-2.2-1.2l-1.8-2.6a8 8 0 0 0-2.3-2.1h-.8zm72.9-4.4 1.7.3 2.3.4.6.3h1.3q2.5.6 3.9 2a22 22 0 0 1 6.1 8.9q.6 1.6.7 3.5.2 2-.7 3.8l-1.5 3q-.7 1.2-1.6 2.4-1 1.3-2 1.8l-2.8 1.8q-1.5.6-3 1.6l-2.8 1.6-1.2.3q-.5 0-1 .2a3 3 0 0 0-1.2 1.2q-.4.7-1.6 1 2.7.6 4.9 3a17 17 0 0 1 3.4 4.6q.5 1.5 1.4 2.6 1 1.2.9 2.7.8.6 1.1 1.7.6 1 .9 2l.5 2.5.8 2.1q.6 1.5 1.3 2.2.7 1 1.6 1.7l1.7 1.7q.8 1 1.5 2.3.4 0 .6-.3h.9q1.6 1.2 3.4 1.8a32 32 0 0 0 9.4 1.3l4.6-.6q.6 0 1.7-.6l2.3-.7q1-.3 2-.4.8.1.8 1.2 0 .8-1 1.8l-1.6 1.6a15 15 0 0 1-4.1 2l-4.9 1.1q-2.5.6-5.2.8l-5 .3a7 7 0 0 1-2.7-.5l-2-.7-3.9-.7q-1.5-.4-3-1.3a7 7 0 0 1-2.2-2 4 4 0 0 0-2.7-1.7l-5.5-5a17 17 0 0 1-4.3-6q-.5-1-1.1-1.8-.7-1-1-2l-.4-1.6q0-.9-.2-2l-.7-2.3a53 53 0 0 0-2.6-6.8l-1.8-1-2-.7q-1.2-.1-2.3.1l-2 .5h-2.7q-1.2 0-2 .2-1.6.4-2.5 2.7-.9 2.2-1.2 4.7-.4 2.4-1.2 4.7t-1.4 4.3q-.4 1.5-1.4 2.2-1 1-2.6.8l-1.4-.2-1.1-.5a23 23 0 0 0-3.7 2.2q-3.5 1-4-.6-.5-1.5.4-5 .5-2.3 1.6-4.4t1.6-3.5v-3.3l-.1-1.3q0-.6.4-1.1 0-1.2.6-1.8.6-.8.7-2l.6-2.1a14 14 0 0 0 .5-4.6q0-1.2.7-2.6l1.1-2.8a12 12 0 0 0 1-5l.6-2.1q.2-.8.8-1.4t1-1.4l-.1-1.1q-.3-.6 0-1 .6-2.2.4-3.4t-.8-2l-.8-1.5q-.3-.8 0-2 .6-.1 1-.9.3-1 1.1-1l1.6-.2a28 28 0 0 1 5.2 0h4l2.7-.3h2.5q1.3 0 2.2.3zm-16 27q.8 0 1.5-.5.9-.4 1.6-.2l2.1.3 2.3.3h1.1q.6-.3 1.4-.2l3-1.9q1.3-.6 2.5-2.5l1.1-1.8.9-1.6q.8-2.5-.3-4l-1.7-3.3a8 8 0 0 0-2-2.2q-1-.7-3.2-.5H167q-2-.2-3.7-.1-1.7 0-3 .6t-2 2l-1.3 3.4a63 63 0 0 0-2.4 7.8 19 19 0 0 0-.5 4 8 8 0 0 1 3.2.1q1.5.3 3 .2m-108.7 63 1.7.3 2.3.4.7.3h1.2q2.5.6 4 2a22 22 0 0 1 6 8.9q.7 1.6.8 3.5 0 2-.8 3.8l-1.4 3-1.6 2.4q-1 1.3-2 1.8l-2.9 1.8q-1.5.6-3 1.6-1.2.9-2.8 1.6l-1.1.3q-.6 0-1 .2a3 3 0 0 0-1.2 1.2q-.5.7-1.6 1 2.6.6 4.8 3a17 17 0 0 1 3.4 4.6q.5 1.5 1.5 2.6t.8 2.7q.7.6 1.2 1.7l.8 2 .6 2.5.7 2.1q.6 1.5 1.4 2.2l1.5 1.7 1.7 1.7q.8 1 1.5 2.3.5 0 .6-.3h.9q1.5 1.2 3.5 1.8a32 32 0 0 0 9.4 1.3l4.5-.6q.7 0 1.8-.6l2.2-.7q1.1-.3 2-.4.8.1.8 1.2 0 .8-.9 1.8l-1.7 1.6a15 15 0 0 1-4.1 2l-4.9 1.1q-2.5.6-5.1.8l-5 .3a7 7 0 0 1-2.7-.5l-2.1-.7-3.8-.7q-1.6-.4-3-1.3a7 7 0 0 1-2.3-2 4 4 0 0 0-2.6-1.7q-2.8-2.3-5.5-5a17 17 0 0 1-4.3-6l-1.2-1.8-1-2-.4-1.6q0-.8-.2-2l-.6-2.3a53 53 0 0 0-2.7-6.8l-1.8-1-2-.7q-1-.1-2.3.1l-2 .5h-2.6q-1.4 0-2.1.2-1.5.4-2.5 2.7-1 2.2-1.1 4.7-.4 2.4-1.3 4.7l-1.4 4.3q-.3 1.5-1.3 2.2-1 1-2.7.8l-1.3-.2q-.4 0-1.2-.5a22 22 0 0 0-3.7 2.2q-3.4 1-4-.6-.4-1.5.4-5 .6-2.3 1.6-4.4a18 18 0 0 0 1.6-3.5q.2-1 .1-1.7l-.1-1.6-.1-1.3q0-.6.4-1.1 0-1.2.6-1.8.5-.8.8-2l.5-2.1a14 14 0 0 0 .5-4.6q.2-1.2.8-2.6l1-2.8a12 12 0 0 0 1-5l.6-2.1q.2-.8.9-1.4t1-1.4q0-.6-.2-1.1v-1q.7-2.2.4-3.4t-.7-2l-.9-1.5q-.3-.8 0-2 .6-.1 1-.9.5-1 1.2-1l1.5-.2a28 28 0 0 1 5.2 0h4.1l2.7-.3h2.5q1.2 0 2 .3zm-16 27q.7 0 1.6-.5.7-.4 1.6-.2l2 .3 2.4.3h1q.5-.2 1.4-.2l3-1.9q1.3-.6 2.5-2.5l1.2-1.8.8-1.6q.7-2.4-.2-4l-1.8-3.3a8 8 0 0 0-2-2.2q-1-.7-3.2-.5h-3.7q-1.9-.2-3.7-.1-1.6 0-3 .6t-2 2l-1.3 3.4a64 64 0 0 0-2.4 7.8 19 19 0 0 0-.4 4 8 8 0 0 1 3.1.1q1.6.3 3 .2m90.3-21.2a13 13 0 0 1-5.7 1.4q-2.9 0-6.4-.2l-4 .3q-5.1.6-8.4 3.8a19 19 0 0 0-5 8l-.8 3.3q-.3 1.5 1.4 1.7h2a23 23 0 0 0 4.4-1.3l2.1-.3q.4 0 .8.2.3.2.8.2 1.8.3 3.8-.2t3.7 0q.3 0 .5.3l.9.5q1.4.5 3.2.7 2 0 3 .6.6.3 1.1.9.6.5.6.7 0 1.2-1.4 1.5l-2.3.4h-1.7l-1.7.1-2.8.6-3 .9q-1.8.7-3.4 1.6-1.5.8-3.5 1-1.4.3-2.6 0a9 9 0 0 0-2.7 0l-1 .3-1 .4-2.3.5-.5.6-.7 1.3q-1 1.9-1 4.1l-.5 4.5 2.2 2q1 .6 3.3.6l1.8-.2q.7-.4 1.9-.5l2.3.2h2.6q3 0 5.2-.7 2-.7 5.2-.4a39 39 0 0 1 5.6.4q1.5 0 3 .4 1.3.3 1.3.9t-.9 1.3a13 13 0 0 1-3.8 2.3l-1.2.4q-1.8.4-3.5.3a13 13 0 0 0-8.7 1.5l-2.4 1-2.7.5-3.6.5a55 55 0 0 0-6.6 1.6q-3 .6-6.7.2a40 40 0 0 0-12.3.8 12 12 0 0 1-5.5.1q-.8 0-1.3-.5.3-.8 1-1.5l1.4-1.1 2.8-2.7q.7-.8 1-2l.8-2.5.8-2.3q.6-1.2 1.3-2a6 6 0 0 1 0-4.4 53 53 0 0 0 2.1-7.5q.2-1 1-1.7.7-1 .9-1.7v-1l.1-1.1q.2-1.6.7-3 .7-1.5.9-2.6v-3.5q.2-2.2.8-4 .7-2 .9-3.4 0-1.2-.3-2.5-.5-1.4-.9-2.1-.3-.6-1-1L79 148q-.3-.6-.4-1 0-1 1-1.1.8 0 1.5-.7 3.9 0 7.2.8a48 48 0 0 0 10 1q1.5-.4 2.9-.5 2.2 0 5 .7t5.5.5q3.7-.2 7-.2l6.8-.2q.7.5 2 .5l2.5-.2q1.3-.3 2.4-.1 1.2 0 1.6 1 .6 1.5-.2 2.5a4 4 0 0 1-2.3 1.3l-1.2.1-3.3.3zm64.3-5.9q-.2 1.8-1.3 2.1l-2 1a3 3 0 0 0-1 1.4q-.3.8-.9 1.2-.5.6-1.5.9l-1.6.4q-1.8.6-3.8.5l-3.4.2q-.9.3-1.7 1l-1.8 1.1-2.4 1.1-.6.8-.9 1.3q-.5 1-.5 2.8a12 12 0 0 1-1 5.1l-.8 2.8-.2 1.9q0 .9-.2 1.8t-1 1.5q-.7.5-1 2-.2.6-.2 1.3v1.3l-1 5.5-1.1 5.8a75 75 0 0 1-2.6 8.7q-.8 0-1.7.5a6 6 0 0 1-3.1 1 2 2 0 0 0-1.3.5l-1.9 2q-1.2 1.2-2 1.4h-1.4l-1-.3h-3.5a5 5 0 0 1-.3-2.3 13 13 0 0 1 1.2-4.6 10 10 0 0 0 1-3.8 7 7 0 0 1 1.4-3.4 5 5 0 0 0 1-1.9q.5-1 1-2.7.7-1.6.8-2.6.2-1.3 0-2.5t.1-2.5l.5-1 .7-1.4.4-2.4a30 30 0 0 1 .7-4.9l.6-2.3 1.2-5q.3-1.1.3-2.2t-.6-2.4a4 4 0 0 0-1.7-1.7q-1-.5-2.3-.6h-5.6q-.5-.2-1-1-.3-.9-1-1.2a9 9 0 0 0-3-.5q-1.5 0-2.2-1.1-.6-1.6 0-3a5 5 0 0 1 1.4-2.2q3.9-.6 8.1.1 4.3.6 8.5.5 1.6 0 3.3-.6 1.8-.5 3.5 0l3.7 1.4h2.1q.9 0 1.6.3l1.7.2h1.5l.8-.2 2.2-.5h1.7l1.7.3q2.3 0 4.4-.5 2.3-.8 4.4-1h2.3q1.2 0 2.3.6m60.6-3q.1 3.7-.8 6.4t-2.3 5l-1 1q-.5.2-.7.8-.6 1-.8 2.6l-.5 3-.4 2.8a9 9 0 0 1-1.4 4l-.6 1-.6 1.3a6 6 0 0 0-.1 2.9l.2.8q0 2.7-1.4 5.6l-2.2 5.7-.3 1.8q0 .8-.2 2l-.6 2.3-.8 2.9-1 2.6q-.5 1.3-1 1.8l-1.3.8-1.7.7-1.7.2q-.8 0-1.4-.4-.9.3-1.3 1.4-.4 1.3-1.6 2l-2 .5q-1.6.3-2.2 0-.7 0-1-.7l-1-1q0-1.8.2-3.4t1-2.6q-.2-2.7.6-4.8.8-2.2 2-4-.9-.8-.7-2.2 0-1.5.8-2.3 0-1-.8-1.7t-2-1l-2.3-.4-2.3-.4q-1.9-.2-2.7-.1l-2.3.1a49 49 0 0 1-6.3-.2h-2.7a6 6 0 0 0-2.4.7q-.2 1-.6 1.7-.3.8-1 1.5l-.8 1.5-.4 1.7.1.7q.3.4.1.7a9 9 0 0 1-1.6 3.6q-1.4 2-2 4.3 0 1.2-.7 2.4a3 3 0 0 1-1.4 1.7q-.5.3-1.1.3t-1.2.2q-.8.4-1.2 1t-1.2.8l-1.2-.1h-1.5l-1.5-.1q-.6 0-.9-.3v-3l1.2-3 1.9-7q.5-1.5 1.3-3 0-1.3.3-2.5l1.7-4.7a7 7 0 0 0 .2-2.4q-.2-1-.9-1.7l-1.4-1.4-1.4-1.7q-.6-.8-.5-2 0-.3.9-.7a15 15 0 0 1 5-1 6 6 0 0 0 1.1-2.9l.4-3.1.6-2.1q.5-1 .6-2.5 0-.7.4-1.6.4-.7.7-1.5a8 8 0 0 0 .2-2.6q0-1.2.7-2.4 1.5-.8 4-1.5 2.6-.7 4.4-.7.8 0 1.3-.4l2.1-1.7q.6-.3 1.3-.2.5 0 1 .8.5.6.5 1.2 0 .8-.6 1.3l-1 1.1-.9 3-.8 3.2-.5.9-.5.6q0 .9.3 1.9t0 2.1q-.5 1.5-1.6 3.2-1 1.5-1 3.7.5.8 1.5 1.2l2.1.6a69 69 0 0 0 11 1.3h3.2q1.6-.2 2.9 1 2-1.3 2.8-2.7 1-1.3 1.5-4.4 1.2-.8 1.7-2.2t1.8-2.2q0-.5-.6-.9-.6-.3-.6-1.1 0-.4.3-.8l.5-.8q.6-2.4.7-4.6 0-2.4 1-5.1 1.8-1.8 4.8-2.3 3-.6 6.4.4l3-1.9q1.5-1.2 3-1.7.7.3 1 .7z"/>
</svg>
